# xmcd CD database file
#
# Track frame offsets:
#	150
#	14794
#	35071
#	72884
#	98135
#	129190
#	162307
#	200917
#	225961
#	260611
#	278609
#	304322
#
# Disc length: 4397 seconds
#
# Revision: 0
# Processed by: cddbd v1.5.2PL0 Copyright (c) Steve Scherf et al.
# Submitted via: CDex 1.81
#
DISCID=a8112b0c
DTITLE=Luiz Martquez Ensemble - Momentos
DYEAR=2015
DGENRE=Blues
TTITLE0=Le Sierra
TTITLE1=Hoyos Negros
TTITLE2=Afro Blue
TTITLE3=Netotilo Epcoatl
TTITLE4=Aladino
TTITLE5=Lamento
TTITLE6=The Trumpet Man
TTITLE7=Tlatelolco
TTITLE8=Zimbabwe
TTITLE9=Huateque
TTITLE10=Lat Totoya
TTITLE11=Povo
EXTD=YEAR: 2015
EXTT0=
EXTT1=
EXTT2=
EXTT3=
EXTT4=
EXTT5=
EXTT6=
EXTT7=
EXTT8=
EXTT9=
EXTT10=
EXTT11=
PLAYORDER=
